# xmcd
#
# Track frame offsets:
#        150
#        18677
#        35912
#        52497
#        69207
#        86202
#        100432
#        117114
#        133037
#        149147
#        167075
#        185602
#        202837
#        219442
#        236299
#        253353
#        267581
#        284266
#        300189
#        316224
#
# Disc length: 4454 seconds
#
# Revision: 0
# Processed by: cddbd v1.5.2PL0 Copyright (c) Steve Scherf et al.
# Submitted via: CDGFix 3.8c
#
DISCID=38116414
DTITLE=Various Artist - THMPLP013
DYEAR=1900
DGENRE=Karaoke
TTITLE0=Collin Raye - Not That Different (Vocals)
TTITLE1=Collin Raye - Love Remains (Vocals)
TTITLE2=Collin Raye - I Can Still Feel You (Vocals)
TTITLE3=Collin Raye - Someone You Used To Know (Vocals)
TTITLE4=Collin Raye - Anyone Else (Vocals)
TTITLE5=Collin Raye - Start Over Georgia (Vocals)
TTITLE6=Collin Raye - Couldn't Last A Moment (Vocals)
TTITLE7=Collin Raye - She's All That (Vocals)
TTITLE8=Collin Raye - You Still Take Me There (Vocals)
TTITLE9=Collin Raye - Ain't Nobody Gonna Take That From Me (Vocals)
TTITLE10=Collin Raye - Not That Different
TTITLE11=Collin Raye - Love Remains
TTITLE12=Collin Raye - I Can Still Feel You
TTITLE13=Collin Raye - Someone You Used To Know
TTITLE14=Collin Raye - Anyone Else
TTITLE15=Collin Raye - Start Over Georgia
TTITLE16=Collin Raye - Couldn't Last A Moment
TTITLE17=Collin Raye - She's All That
TTITLE18=Collin Raye - You Still Take Me There
TTITLE19=Collin Raye - Ain't Nobody Gonna Take That From Me
EXTD=
EXTT0=
EXTT1=
EXTT2=
EXTT3=
EXTT4=
EXTT5=
EXTT6=
EXTT7=
EXTT8=
EXTT9=
EXTT10=
EXTT11=
EXTT12=
EXTT13=
EXTT14=
EXTT15=
EXTT16=
EXTT17=
EXTT18=
EXTT19=
PLAYORDER=
